<svg width="48" height="45" viewBox="0 0 48 45" fill="none" xmlns="http://www.w3.org/2000/svg">
<path d="M44.5714 0H3.42857C2.51939 0.00114798 1.64807 0.362752 1.00526 1.00526C0.362782 1.64811 0.00117551 2.51941 0 3.42857V33.0005C0.00114798 33.9097 0.362753 34.781 1.00526 35.4238C1.64811 36.0663 2.51941 36.4279 3.42857 36.4291H20.6841L17.6841 42.4291H14.3569C13.8885 42.4363 13.5128 42.8178 13.5128 43.2862C13.5131 43.7546 13.8889 44.1361 14.3569 44.1433H33.6431C34.1103 44.1345 34.4842 43.7534 34.4842 43.2862C34.4842 42.819 34.1099 42.4379 33.6431 42.4291H30.3159L27.3159 36.4291H44.5714C45.4806 36.4279 46.3519 36.0663 46.9947 35.4238C47.6372 34.7809 47.9988 33.9096 48 33.0005V3.42857C47.9989 2.51939 47.6372 1.64806 46.9947 1.00526C46.3519 0.362782 45.4806 0.00117551 44.5714 0ZM3.42857 1.71429H44.5714C45.026 1.71467 45.4619 1.89567 45.7833 2.21671C46.1043 2.53813 46.2853 2.97398 46.2857 3.42856V29.2183H1.71428V3.42856C1.71466 2.97397 1.89566 2.53813 2.2167 2.21671C2.53812 1.89567 2.97399 1.71467 3.42857 1.71429ZM28.3984 42.4281H19.6011L22.6011 36.4281H25.3988L28.3984 42.4281ZM44.5714 34.7138H3.42857C2.97398 34.7134 2.53814 34.5324 2.21672 34.2114C1.89568 33.89 1.71468 33.4541 1.7143 32.9995V30.9317H46.2857V32.9995C46.2853 33.4541 46.1043 33.89 45.7833 34.2114C45.4619 34.5324 45.026 34.7134 44.5714 34.7138Z" fill="#FA8832"/>
<path d="M25.4468 31.9658H22.554C22.0867 31.9746 21.7129 32.3557 21.7129 32.823C21.7129 33.2898 22.0871 33.6709 22.554 33.6801H25.4468C25.9136 33.6709 26.2875 33.2898 26.2875 32.823C26.2875 32.3557 25.9136 31.9746 25.4468 31.9658Z" fill="#FA8832"/>
<path d="M15.1066 24.2782H32.8921C33.574 24.2778 34.2276 24.0065 34.7097 23.5244C35.1915 23.0422 35.4628 22.3886 35.4635 21.7067V9.22477C35.4628 8.54327 35.1915 7.88968 34.7097 7.40753C34.2276 6.92538 33.574 6.65408 32.8921 6.65332H15.1066C14.4247 6.65409 13.7711 6.92538 13.289 7.40753C12.8072 7.88967 12.5359 8.54327 12.5352 9.22477V21.7067C12.5359 22.3886 12.8072 23.0422 13.289 23.5244C13.7711 24.0065 14.4247 24.2778 15.1066 24.2782ZM32.8921 22.5639H15.1066C14.6337 22.5635 14.2502 22.1801 14.2495 21.7068V9.41778L21.7239 16.0507C22.3514 16.6071 23.1611 16.9143 23.9994 16.9143C24.8378 16.9143 25.6475 16.6071 26.275 16.0507L33.7494 9.41778V21.7068C33.7487 22.1801 33.3652 22.5635 32.8923 22.5639H32.8921ZM15.6493 8.36766H32.3494L25.1371 14.7683C24.8234 15.0465 24.4185 15.2003 23.9992 15.2003C23.5798 15.2003 23.1749 15.0465 22.8612 14.7683L15.6493 8.36766Z" fill="#FA8832"/>
</svg>
