<svg width="64" height="65" viewBox="0 0 64 65" fill="none" xmlns="http://www.w3.org/2000/svg">
<path d="M38.1475 61.4746C29.7738 63.3354 20.6688 61.2752 13.6241 55.2273C13.6241 52.7684 14.4882 48.9138 20.0044 47.4516C20.9348 47.3185 28.2454 46.0557 28.7104 40.8057C28.8435 40.1409 28.7767 38.6126 26.8496 35.5557C24.0583 31.4353 22.3306 24.6564 24.5901 20.403C25.9191 17.9442 28.4447 16.6814 32.0334 16.6814C35.6219 16.6814 38.1476 17.9443 39.4766 20.403C41.7361 24.6564 40.0084 31.3685 37.1503 35.5557C35.2895 38.5462 35.2233 40.0747 35.2895 40.7395C35.5551 43.5308 37.7484 45.1922 39.9415 46.1894C40.6063 45.5246 41.4036 44.9933 42.201 44.4615C40.3401 43.8635 37.8814 42.667 37.7482 40.4738V40.3407C37.7482 40.2077 37.8145 39.211 39.2103 36.8847C42.4669 32.0333 44.3278 24.4569 41.6029 19.2731C40.3405 17.0799 37.6824 14.355 31.9669 14.355C26.2514 14.355 23.5932 17.0799 22.3967 19.3394C19.6717 24.5232 21.5326 32.0996 24.7892 36.8846C26.2513 39.2109 26.3176 40.2739 26.3176 40.4069V40.54C26.052 44.0623 19.6718 45.059 19.6054 45.059H19.4724C13.7569 46.5874 11.9624 50.309 11.4306 53.167C5.64877 47.6509 2.39264 40.0745 2.39264 31.9665C2.39264 15.6841 15.6844 2.39229 31.9669 2.39229C48.2493 2.39229 61.5411 15.6841 61.5411 31.9665C61.5411 37.3496 60.079 42.4671 57.4871 46.9198C58.0852 47.5846 58.5506 48.3157 59.0156 49.0467C62.2055 43.996 64 38.0812 64 31.9003C63.9337 14.3551 49.5784 0 31.9668 0C14.3551 0 0 14.3551 0 31.9668C0 41.2046 3.92096 49.8442 10.8329 55.9585C10.8329 55.9585 10.8329 56.0248 10.8992 56.0248C16.8803 61.7402 24.5233 64.5315 32.0996 64.5315C34.6915 64.5315 37.2834 64.1991 39.809 63.5348C39.1442 62.9368 38.6125 62.2057 38.147 61.4747L38.1475 61.4746Z" fill="#FFC35F"/>
<path d="M48.5151 64.5976C43.2651 64.5976 39.0117 60.3442 39.0117 55.0942C39.0117 49.8442 43.2651 45.5908 48.5151 45.5908C53.7651 45.5908 58.0185 49.8442 58.0185 55.0942C58.0185 60.3442 53.7651 64.5976 48.5151 64.5976ZM48.5151 47.6506C44.3948 47.6506 41.0718 50.9735 41.0718 55.0939C41.0718 59.2142 44.3948 62.5371 48.5151 62.5371C52.6355 62.5371 55.9584 59.2142 55.9584 55.0939C55.9584 51.0403 52.6355 47.6506 48.5151 47.6506Z" fill="#FFC35F"/>
<path d="M52.7021 58.2174L50.642 56.2903C50.642 56.2903 49.5785 57.4863 49.1135 57.287C49.1135 57.287 47.6514 56.4229 46.5216 54.0304C46.3223 53.5649 47.8507 52.7675 47.8507 52.7675L46.4548 50.375C46.4548 50.375 44.1953 51.5047 44.3279 52.8339C44.4609 54.1629 45.5239 57.7519 49.5779 59.6791C50.9742 60.4107 52.7019 58.2175 52.7019 58.2175L52.7021 58.2174Z" fill="#FFC35F"/>
</svg>
