<svg width="56" height="65" viewBox="0 0 56 65" fill="none" xmlns="http://www.w3.org/2000/svg">
<path d="M24.5034 7.7724H14.3762C13.8864 7.7724 13.4593 7.49979 13.2414 7.09735L10.4141 2.57352H6.01136C4.12739 2.57352 2.58144 4.11539 2.58144 5.99439V59.0043C2.58144 60.8833 4.12739 62.4252 6.01136 62.4252H32.869C34.7529 62.4252 36.2989 60.8833 36.2989 59.0043V45.1684C35.1342 45.1588 33.9642 45.0429 32.8198 44.8275L26.9184 50.7134C26.1003 51.5293 24.7163 50.9341 24.7163 49.8032L24.7153 41.2562C19.2004 37.2199 16.917 32.5013 16.917 25.6799C16.917 14.9783 25.571 6.27687 36.2984 6.19071V5.996C36.2984 4.11699 34.7525 2.57512 32.8685 2.57512H28.4662L25.597 7.1648C25.5213 7.28693 24.5031 7.77301 24.5031 7.77397L24.5034 7.7724ZM38.8794 45.041V59.0049C38.8794 62.3047 36.177 65 32.8685 65H6.0109C2.70205 65 0 62.3047 0 59.0049V5.99506C0 2.6953 2.70242 0 6.0109 0H32.8685C36.177 0 38.8794 2.6953 38.8794 5.99506V6.3369C48.6452 7.54081 56 15.849 56 25.6796C56 35.9244 49.1416 43.9391 38.8794 45.0407V45.041ZM27.2968 46.6959L31.4874 42.5211C31.7887 42.2216 32.2327 42.0764 32.6791 42.1769C33.9213 42.4586 35.1844 42.5947 36.4585 42.5947C46.3492 42.5947 53.4199 35.5438 53.4199 25.6792C53.4199 16.3364 45.8264 8.76256 36.4585 8.76256C27.0906 8.76256 19.4984 16.336 19.4984 25.6792C19.4984 31.9152 21.5472 35.8928 26.648 39.4844C27.0355 39.7065 27.2968 40.1233 27.2968 40.6012V46.6959V46.6959ZM43.846 34.1463L45.917 32.0808L41.8372 28.0127L40.4291 29.4161C39.9253 29.9186 39.1082 29.9186 38.6049 29.4161L32.7116 23.5384C32.2074 23.0359 32.2074 22.2205 32.7116 21.7181L34.1188 20.3147L30.04 16.2456L27.969 18.3111C26.7021 19.5747 26.5324 21.469 27.8374 22.7714L39.3737 34.2765C40.6797 35.5789 42.5791 35.4097 43.8458 34.1462L43.846 34.1463ZM47.8492 33.7938L45.6708 35.9665C43.4104 38.2209 39.8483 38.3902 37.5489 36.0968L26.0135 24.5909C23.714 22.2975 23.8832 18.7459 26.1441 16.4913L28.3225 14.3187C29.2635 13.3792 30.8153 13.3792 31.7563 14.3187L36.0506 18.6016C36.994 19.5421 36.9949 21.0864 36.0515 22.0273L35.4485 22.6283L39.5176 26.6868L40.1226 26.0882C41.067 25.1477 42.6106 25.1429 43.5549 26.0848L47.8467 30.3701C48.8065 31.2711 48.7607 32.8847 47.8491 33.7933L47.8492 33.7938ZM25.4294 2.57476H13.45L15.09 5.19842H23.7899L25.4299 2.57476H25.4294ZM17.6849 60.9006C15.9861 60.9006 15.9861 58.3255 17.6849 58.3255H21.194C22.8933 58.3255 22.8933 60.9006 21.194 60.9006H17.6849Z" fill="#2B8C79"/>
</svg>
